name C:\Users\u0101727\Documents\MyRepositories\predictivesimulations\OpenSimModel\subject1\EMG\EMG_gait_14.mot
datacolumns 25
datarows 11
range 4.81600000 4.82600000
endheader
time	HamL_r	TA_r	PerL_r	GL_r	HamM_r	Sol_r	VL_r	VM_r	PerB_l	TA_l	PerL_l	GL_l	GM_l	Sol_l	VL_l	VM_l	AddL_l	RF_l	TFL_l	GluMed_l	HamL_l	HamM_l	GluMed_r	RF_r	
          4.81600000	          0.00545744	          0.00355966	          0.03868756	          0.00274904	          0.01776291	          0.01128373	          0.02102510	          0.00428851	          0.07028249	          0.00878544	          0.02039589	          0.01896008	          0.02581795	          0.09451057	          0.00506048	          0.00487497	          0.00566022	          0.00486928	          0.00552245	          0.00412031	          0.00554082	          0.00560371	          0.01256354	          0.01056754	
          4.81700000	          0.00547391	          0.00355563	          0.03861736	          0.00275621	          0.01798075	          0.01124431	          0.02092446	          0.00433250	          0.06979591	          0.00867052	          0.02012485	          0.01846453	          0.02544375	          0.09290494	          0.00507071	          0.00491083	          0.00565757	          0.00485223	          0.00555063	          0.00416759	          0.00554714	          0.00568727	          0.01283221	          0.01059902	
          4.81800000	          0.00548850	          0.00355321	          0.03850575	          0.00276340	          0.01824842	          0.01119918	          0.02082163	          0.00437463	          0.06927309	          0.00855396	          0.01984625	          0.01799681	          0.02508300	          0.09124014	          0.00508243	          0.00494555	          0.00565407	          0.00483631	          0.00557722	          0.00421440	          0.00555292	          0.00577306	          0.01310360	          0.01063270	
          4.81900000	          0.00550128	          0.00355241	          0.03835482	          0.00277068	          0.01856415	          0.01114932	          0.02071755	          0.00441447	          0.06871306	          0.00843584	          0.01956022	          0.01755585	          0.02473403	          0.08952143	          0.00509575	          0.00497893	          0.00564986	          0.00482153	          0.00560229	          0.00426061	          0.00555834	          0.00586081	          0.01337789	          0.01066841	
          4.82000000	          0.00551234	          0.00355323	          0.03816737	          0.00277812	          0.01892599	          0.01109582	          0.02061304	          0.00445161	          0.06811502	          0.00831630	          0.01926722	          0.01714046	          0.02439520	          0.08775422	          0.00511081	          0.00501078	          0.00564512	          0.00480790	          0.00562592	          0.00430607	          0.00556358	          0.00595024	          0.01365532	          0.01070592	
          4.82100000	          0.00552181	          0.00355563	          0.03794636	          0.00278577	          0.01933183	          0.01103981	          0.02050912	          0.00448566	          0.06747772	          0.00819569	          0.01896779	          0.01674930	          0.02406477	          0.08594359	          0.00512770	          0.00504087	          0.00564008	          0.00479537	          0.00564820	          0.00435056	          0.00556876	          0.00604110	          0.01393633	          0.01074489	
          4.82200000	          0.00552980	          0.00355954	          0.03769460	          0.00279370	          0.01977945	          0.01098244	          0.02040697	          0.00451636	          0.06679946	          0.00807442	          0.01866236	          0.01638092	          0.02374092	          0.08409414	          0.00514649	          0.00506905	          0.00563496	          0.00478389	          0.00566922	          0.00439384	          0.00557394	          0.00613304	          0.01422157	          0.01078493	
          4.82300000	          0.00553645	          0.00356490	          0.03741470	          0.00280201	          0.02026650	          0.01092491	          0.02030789	          0.00454358	          0.06607865	          0.00795290	          0.01835114	          0.01603386	          0.02342171	          0.08221016	          0.00516721	          0.00509522	          0.00562998	          0.00477345	          0.00568899	          0.00443561	          0.00557916	          0.00622571	          0.01451197	          0.01082559	
          4.82400000	          0.00554187	          0.00357158	          0.03710927	          0.00281082	          0.02079039	          0.01086843	          0.02021307	          0.00456732	          0.06531427	          0.00783148	          0.01803413	          0.01570675	          0.02310508	          0.08029588	          0.00518984	          0.00511928	          0.00562537	          0.00476404	          0.00570748	          0.00447556	          0.00558448	          0.00631866	          0.01480883	          0.01086643	
          4.82500000	          0.00554620	          0.00357944	          0.03678088	          0.00282027	          0.02134836	          0.01081432	          0.02012357	          0.00458763	          0.06450561	          0.00771044	          0.01771122	          0.01539828	          0.02278888	          0.07835553	          0.00521434	          0.00514114	          0.00562133	          0.00475561	          0.00572464	          0.00451340	          0.00558997	          0.00641142	          0.01511382	          0.01090701	
          4.82600000	          0.00554954	          0.00358833	          0.03643195	          0.00283054	          0.02193753	          0.01076391	          0.02004029	          0.00460460	          0.06365174	          0.00759003	          0.01738229	          0.01510707	          0.02247089	          0.07639325	          0.00524063	          0.00516070	          0.00561812	          0.00474814	          0.00574038	          0.00454887	          0.00559572	          0.00650348	          0.01542898	          0.01094701	
